<svg xmlns="http://www.w3.org/2000/svg" version="1.1" xmlns:xlink="http://www.w3.org/1999/xlink" xmlns:svgjs="http://svgjs.dev/svgjs" width="1000" height="550" viewBox="0 0 1000 550"><g transform="matrix(1,0,0,1,-0.6060606060606233,-0.4913080526116005)"><svg viewBox="0 0 396 218" data-background-color="#ffffff" preserveAspectRatio="xMidYMid meet" height="550" width="1000" xmlns="http://www.w3.org/2000/svg" xmlns:xlink="http://www.w3.org/1999/xlink"><g id="tight-bounds" transform="matrix(1,0,0,1,0.2400000000000091,0.19473664630785947)"><svg viewBox="0 0 395.52 217.61052670738428" height="217.61052670738428" width="395.52"><g><svg viewBox="0 0 395.52 217.61052670738428" height="217.61052670738428" width="395.52"><g transform="matrix(1,0,0,1,0,160.8956955277261)"><svg viewBox="0 0 395.52 56.71483117965818" height="56.71483117965818" width="395.52"><g id="textblocktransform"><svg viewBox="0 0 395.52 56.71483117965818" height="56.71483117965818" width="395.52" id="textblock"><g><svg viewBox="0 0 395.52 56.71483117965818" height="56.71483117965818" width="395.52"><g transform="matrix(1,0,0,1,0,0)"><svg width="395.52" viewBox="2.75 -34.400001525878906 239.8800048828125 34.400001525878906" height="56.71483117965818" data-palette-color="#31c48d"><path d="M30.15-34.4L32.8 0 28.35 0 27.3-15.55Q26.6-26 26.55-29.95L26.55-29.95 19.95-3.9 15.6-3.9 8.7-29.95Q8.75-25.6 8.15-15.45L8.15-15.45 7.15 0 2.75 0 5.4-34.4 11.45-34.4 17.85-8.95 24-34.4 30.15-34.4ZM61.5 0L56.7 0 54.4-8.75 42.85-8.75 40.55 0 35.9 0 45.85-34.4 51.55-34.4 61.5 0ZM48.65-30.7L43.8-12.4 53.45-12.4 48.65-30.7ZM66.1-34.4L70.75-34.4 70.75 0 66.1 0 66.1-34.4ZM101.04-34.4L101.04 0 95.04 0 82.79-29.55Q83.39-22.95 83.39-16.7L83.39-16.7 83.39 0 79.19 0 79.19-34.4 85.14-34.4 97.44-4.8Q97.24-6.55 97.02-9.6 96.79-12.65 96.79-15.65L96.79-15.65 96.79-34.4 101.04-34.4ZM121.29-34.4L138.39-34.4 137.84-30.8 125.94-30.8 125.94-19.45 136.29-19.45 136.29-15.85 125.94-15.85 125.94-3.65 138.54-3.65 138.54 0 121.29 0 121.29-34.4ZM160.94-34.4L165.54-34.4 156.04 0 150.49 0 140.84-34.4 145.64-34.4 153.34-4.5 160.94-34.4ZM170.18-34.4L187.28-34.4 186.73-30.8 174.83-30.8 174.83-19.45 185.18-19.45 185.18-15.85 174.83-15.85 174.83-3.65 187.43-3.65 187.43 0 170.18 0 170.18-34.4ZM215.48-34.4L215.48 0 209.48 0 197.23-29.55Q197.83-22.95 197.83-16.7L197.83-16.7 197.83 0 193.63 0 193.63-34.4 199.58-34.4 211.88-4.8Q211.68-6.55 211.45-9.6 211.23-12.65 211.23-15.65L211.23-15.65 211.23-34.4 215.48-34.4ZM220.28-34.4L242.63-34.4 242.08-30.6 233.63-30.6 233.63 0 228.98 0 228.98-30.6 220.28-30.6 220.28-34.4Z" opacity="1" transform="matrix(1,0,0,1,0,0)" fill="#31c48d" class="wordmark-text-0" data-fill-palette-color="primary" id="text-0"></path></svg></g></svg></g></svg></g></svg></g><g transform="matrix(1,0,0,1,130.70116272170594,0)"><svg viewBox="0 0 134.11767455658813 134.11767455658813" height="134.11767455658813" width="134.11767455658813"><g><svg></svg></g><g id="icon-0"><svg viewBox="0 0 134.11767455658813 134.11767455658813" height="134.11767455658813" width="134.11767455658813"><g><path d="M0 67.059c0-37.036 30.023-67.059 67.059-67.059 37.036 0 67.059 30.023 67.059 67.059 0 37.036-30.023 67.059-67.059 67.059-37.036 0-67.059-30.023-67.059-67.059zM67.059 129.003c34.211 0 61.944-27.733 61.944-61.944 0-34.211-27.733-61.944-61.944-61.944-34.211 0-61.944 27.733-61.944 61.944 0 34.211 27.733 61.944 61.944 61.944z" data-fill-palette-color="accent" fill="#31c48d" stroke="transparent"></path><ellipse rx="66.38824890551112" ry="66.38824890551112" cx="67.05883727829406" cy="67.05883727829406" fill="#31c48d" stroke="transparent" stroke-width="0" fill-opacity="1" data-fill-palette-color="accent"></ellipse></g><g transform="matrix(1,0,0,1,34.26169366632972,31.89960207101003)"><svg viewBox="0 0 65.59428722392869 70.31847041456807" height="70.31847041456807" width="65.59428722392869"><g><svg xmlns="http://www.w3.org/2000/svg" xmlns:xlink="http://www.w3.org/1999/xlink" version="1.1" x="0" y="0" viewBox="8.178999900817871 5.166999816894531 83.64199829101562 89.66600036621094" enable-background="new 0 0 100 100" xml:space="preserve" height="70.31847041456807" width="65.59428722392869" class="icon-s-0" data-fill-palette-color="quaternary" id="s-0"><path d="M35.356 21.357c0 1.812-1.468 3.281-3.279 3.281l0 0c-1.812 0-3.279-1.469-3.279-3.281V8.447c0-1.812 1.468-3.28 3.279-3.28l0 0c1.812 0 3.279 1.468 3.279 3.28V21.357z" fill="#ffffff" data-fill-palette-color="quaternary"></path><path d="M81.983 14.93h-8.989v6.427c0 2.786-2.265 5.052-5.05 5.052s-5.05-2.266-5.05-5.052V14.93H37.128v6.427c0 2.786-2.266 5.052-5.051 5.052-2.784 0-5.05-2.266-5.05-5.052V14.93h-8.989c-5.434 0-9.838 4.405-9.838 9.838v7.378h83.621v-7.378C91.821 19.335 87.417 14.93 81.983 14.93z" fill="#ffffff" data-fill-palette-color="quaternary"></path><path d="M71.224 21.357c0 1.812-1.468 3.281-3.279 3.281l0 0c-1.812 0-3.279-1.469-3.279-3.281V8.447c0-1.812 1.468-3.28 3.279-3.28l0 0c1.812 0 3.279 1.468 3.279 3.28V21.357z" fill="#ffffff" data-fill-palette-color="quaternary"></path><path d="M8.2 34.884v38.021H8.179v2.217H8.2v9.873c0 5.434 4.404 9.838 9.838 9.838h63.945c5.434 0 9.838-4.404 9.838-9.838V34.884H8.2zM89.362 54.279H71.678V37.344h17.685V54.279zM28.907 57.402v15.503H28.49C25.759 68.075 25.83 61.864 28.907 57.402zM51.664 72.905H51.4V58.307C53.735 62.682 53.92 68.407 51.664 72.905zM49.184 56.496v16.409H31.123V56.496H49.184zM31.99 54.279c1.739-1.228 3.894-2.102 6.485-2.452 3.985-0.54 7.217 0.503 9.638 2.452H31.99zM49.184 53.506c-2.22-1.516-4.812-2.543-7.51-2.909-3.864-0.523-7.549 0.601-10.552 2.739V37.344h18.062V53.506zM51.4 37.344h18.061v16.936H51.4V37.344zM38.021 79.875c-2.803-0.616-5.106-1.897-6.898-3.586v-1.167h18.062v1.228c-1.934 1.904-4.572 3.26-7.965 3.675-1.024 0.125-1.659 1.393-0.253 1.221 3.104-0.38 5.901-1.468 8.218-3.128v14.257H31.123V78.617c1.715 1.142 3.641 1.986 5.669 2.432C37.496 81.204 39.204 80.135 38.021 79.875zM51.4 76.194c0.327-0.343 0.64-0.699 0.935-1.072h17.126v17.252H51.4V76.194zM53.8 72.905c0.931-1.709 1.58-3.632 1.869-5.748 0.562-4.112-0.772-7.798-3.171-10.661h16.963v16.409H53.8zM71.678 56.496h17.685v16.409H71.678V56.496zM28.907 37.344v16.936H10.66V37.344H28.907zM10.66 56.496h17.113c-1.357 1.662-2.424 3.568-3.084 5.611-1.24 3.84-0.645 7.616 1.114 10.798H10.66V56.496zM10.66 84.995v-9.873h16.644c0.491 0.612 1.027 1.188 1.604 1.729v15.523H18.038C13.97 92.374 10.66 89.063 10.66 84.995zM81.983 92.374H71.678V75.122h17.685v9.873C89.362 89.063 86.052 92.374 81.983 92.374z" fill="#ffffff" data-fill-palette-color="quaternary"></path></svg></g></svg></g></svg></g></svg></g><g></g></svg></g><defs></defs></svg><rect width="395.52" height="217.61052670738428" fill="none" stroke="none" visibility="hidden"></rect></g></svg></g></svg>